# xmcd CD database file
#
# Track frame offsets:
#	150
#	17837
#	33995
#	51722
#	65657
#	79987
#	94635
#	113577
#	129279
#	148560
#	169250
#	171400
#	189300
#
# Disc length: 2755 seconds
#
# Revision: 2
# Processed by: cddbd v1.5.2PL0 Copyright (c) Steve Scherf et al.
# Submitted via: CDex 1.88
#
DISCID=b30ac10d
DTITLE=Cayouche - Roule, Roule
DYEAR=1900
DGENRE=Country
TTITLE0=La Reine Du Bingo
TTITLE1=Pourquoi S'en Aller
TTITLE2=C'est Ca Mon Acadie
TTITLE3=Les Tymeux
TTITLE4=La Reponse
TTITLE5=Sanatorium
TTITLE6=Le Portrait De Mon Pere
TTITLE7=Tu M'as Flushe
TTITLE8=Vin De Maison
TTITLE9=Roule, Roule
TTITLE10=JFU
TTITLE11=La Vie
TTITLE12=Infame Destin
EXTD=
EXTT0=
EXTT1=
EXTT2=
EXTT3=
EXTT4=
EXTT5=
EXTT6=
EXTT7=
EXTT8=
EXTT9=
EXTT10=
EXTT11=
EXTT12=
PLAYORDER=
